/* XPM */
const char *logo[] = {
/* columns rows colors chars-per-pixel */
"64 64 65 1 ",
"  c #0E0C0C",
". c #110F0F",
"X c #151412",
"o c #191615",
"O c #1C1916",
"+ c #1D1B1A",
"@ c #221E1C",
"# c #24211E",
"$ c #262221",
"% c #292523",
"& c #2D2926",
"* c #2F2B28",
"= c #312B27",
"- c #382F27",
"; c #322D2A",
": c #36312E",
"> c #38322E",
", c #373230",
"< c #3A3431",
"1 c #3E3835",
"2 c #3D3A39",
"3 c #423B37",
"4 c #443D3A",
"5 c #46413E",
"6 c #48433F",
"7 c #464242",
"8 c #4A4543",
"9 c #4D4947",
"0 c #494749",
"q c #4B494B",
"w c #534E4C",
"e c #55504E",
"r c #4C4B50",
"t c #4E4F5A",
"y c #514E51",
"u c #575250",
"i c #5B5553",
"p c #5D5856",
"a c #53545C",
"s c #625C5A",
"d c #5B5A61",
"f c #5F5F69",
"g c #605E61",
"h c #60626E",
"j c #6F717C",
"k c #767783",
"l c #7B7B84",
"z c #898B97",
"x c #848A9E",
"c c #8B8E9C",
"v c #8F92A0",
"b c #9399AF",
"n c #9C9EAC",
"m c #A3AAC3",
"M c #ABB0C5",
"N c #A9B1CB",
"B c #B6BACB",
"V c #B1B9D2",
"C c #B2BEE0",
"Z c #BAC0D3",
"A c #C0CAE8",
"S c #CDD4EB",
"D c #D1D7EE",
"F c #D7DFF8",
"G c None",
/* pixels */
"GGGGGGGGGGGGGGGGGGGGGGGGGGGGGGGGGGGGGGGGGGGGGGGGGGGGGGGGGGGGGGGG",
"GGGGGGGGGGGGGGGGGGGGGGGGGGGGGGGGGGGGGGGGGGGGGGGGGGGGGGGGGGGGGGGG",
"GGGGGGGGGGGGGGGGGGGGGGGGGGGGGGGGGGGGGGGGGGGGGGGGGGGGGGGGGGGGGGGG",
"GGGGGGGGGGGGGGGGGGGGGGGGGGGGGGGGGGGGGGGGGGGGGGGGGGGGGGGGGGGGGGGG",
"GGGGGGGGGGGGGGGGGGGGGGGGGGGGGGGGGGGGGGGGGGGGGGGGGGGGGGGGGGGGGGGG",
"GGGGGGGGGGGGGGGGGGGGGGGGGGGGGGGGGGGGGGGGGGGGGGGGGGGGGGGGGGGGGGGG",
"GGGGGGGGGGGGGGGGGGGGGGGGGGGGGGGGGGGGGGGGGGGGGGGGGGGGGGGGGGGGGGGG",
"GGGGGGGGGGGGGGGGGGGGGGGGGGGGGGGGGGGGGGGGGGGGGGGGGGGGGGGGGGGGGGGG",
"GGGGGG%33$GGGGGGGGGGGGGGGGGGGGGGGGGGGGGGGGGGGGGGGGGGGGGGGGGGGGGG",
"GGGGG343443GGGGGGGGGGGGGGGGGGGGGGGGGGGGGGGGGGGGGGGGGGGGGGGGGGGGG",
"GGGG31133344>GGGGGGGGGGGGGGGGGGGGGGGGGGGGGGGGGGGGGGGGGGGGGGGGGGG",
"GGG$:;11333344;GGGGGGGGGGGGGGGGGGGGGGGGGGGGGGGGGGGGGGGGGGGGGGGGG",
"GGG*;%;<13333343$GGGGGGGGGGGGGGGGGGGGGGGGGGGGGGGGGGGGGGGGGGGGGGG",
"GGG&*$%*;<13333343GGGGGGGGGGGGGGGGGGGGGGGGGGGGGGGGGGGGGGGGGGGGGG",
"GGGa2#%#G%<<33333341%GoOO@;=GGGGGGGGGGGGGGGGGGGGGGGGGGGGGGGGGGGG",
"GGG71#%%GG;=>133333<*%%%:3544;GGGGGGGGGGGGGGGGGGGGGGGGGGGGGGGGGG",
"GGG;;$%%OG=$*;<<11;$#;;>431>&=$GGGGGGGGGGGGGGGGGGGGGGGGGGGGGGGGG",
"GGG;<$$%:1*$$%*:<;;7g;<><;>1<44<GGGGGGGGGGGGGGGGGGGGGGGGGGGGGGGG",
"GGG%1*&133;$;33311%zFk=<:;333<<46>GGGGGGGGGGGGGGGGGGGGGGGGGGGGGG",
"GGGG;<<111:<43333<&jAB2><143331<<44;GGGGGGGGGGGGGGGGGGGGGGGGGGGG",
"GGGGGGGG+%;:<<111<<<nSr;<<13333111<43%GGGGGGGGGGGGGGGGGGGGGGGGGG",
"GGGGGGGGGGGGGGG#&&fq&BM:<<<<3333311114:GGGGGGGGGGGGGGGGGGGGGGGGG",
"GGGGGGGGGGGGGGGGGGG;;sl4;%;<<133333<<333;GGGGGGGGGGGGGGGGGGGGGGG",
"GGGGGGGGGGGGGGGGGGGGG:%42@%*;,<133333<<44333GGGGGGGGGGGGGGGGGGGG",
"GGGGGGGGGGGGGGGGGGGGGG<<8:@$%*,,<333343<>1<=GGGGGGGGGGGGGGGGGGGG",
"GGGGGGGGGGGGGGGGGGGGGGG:<74&#$&;:<<143331<;%$GGGGGGG.+%GGGGGGGGG",
"GGGGGGGGGGGGGGGGGGGGGGGG<:381$#%%:<<133333115>GGGGGG+;;@GGGGGGGG",
"GGGGGGGGGGGGGGGGGGGGGGGG$<::47:$$%=,>=143333344;GGG %@&GGGGGGGGG",
"GGGGGGGGGGGGGGGGGGGGGGGG+%dr=164*#$;;a7;144333344%GX%#%GGGGGGGGG",
"GGGGGGGGGGGGGGGGGGGGGGGG%$*1,,:382%%>04:<<33333334;$%%XGGGGGGGGG",
"GGGGGGGGGGGGGGGGGGGGGGG$%%$%1;;<:47><;><<:>1333333;$%O.GGGGGGGGG",
"GGGGGGGGGGGGGGGGGGGGGG+%$%$=%ad%::<<>,:<<>,><333433>%@$GGGGGGGGG",
"GGGGGGGGGGGGGGGGGGGGGG%$$%%:OtCn4:<::<:*:,<,>,<343343<1:GGGGGGGG",
"GGGGGGGGGGGGGGGGGGGGGG&%%$=4>@xSq%<<<:<<;:<::<:<<34331>:GGGGGGGG",
"GGGGGGGGGGGGGGGGGGGGGG+%$$33@O,2@&&:<::44;,::<<<:<133;##GGGGGGGG",
"GGGGGGGGGGGGGGGGGGGGGGG$$;;+GGG@**XG<<:7e71<;;,:<>:>;%cbGGGGGGGG",
"GGGGGGGGGGGGGGGGGGGGGGGG%# GGGGGGGGG;::2ii,#1:;<:<,<@vmdrGGGGGGG",
"GGGGGGGGGGGGGGGGGGGGGGGGGGGGGGGGGGGG%5:<9;XGG*1<::<;8V8-3<GGGGGG",
"GGGGGGGGGGGGGGGGGGGGGGGGGGGGGGGGGGGG#p9#$$@GGGG;1*:;yN44334;GGGG",
"GGGGGGGGGGGGGGGGGGGGGGGGGGGGGGGGGGGGGee%$%@GGGGG@<:;%hf>433%+GGG",
"GGGGGGGGGGGGGGGGGGGGGGGGGGGGGGGGGGGGG9i*@%$GGGGGGG%1&@GGG316@GGG",
"GGGGGGGGGGGGGGGGGGGGGGGGGGGGGGGGGGGGG7p1+%%GGGGGGGGGOGGGGG@:GGGG",
"GGGGGGGGGGGGGGGGGGGGGGGGGGGGGGGGGGGGG<p4+%%XGGGGGGGGGGGGGGGGGGGG",
"GGGGGGGGGGGGGGGGGGGGGGGGGGGGGGGGGGGGG&i8@%%+GGGGGGGGGGGGGGGGGGGG",
"GGGGGGGGGGGGGGGGGGGGGGGGGGGGGGGGGGGGG+iw$$%+GGGGGGGGGGGGGGGGGGGG",
"GGGGGGGGGGGGGGGGGGGGGGGGGGGGGGGGGGGGGGeu%$%$GGGGGGGGGGGGGGGGGGGG",
"GGGGGGGGGGGGGGGGGGGGGGGGGGGGGGGGGGGGGG9i;@%%GGGGGGGGGGGGGGGGGGGG",
"GGGGGGGGGGGGGGGGGGGGGGGGGGGGGGGGGGGGGG4p2+%%XGGGGGGGGGGGGGGGGGGG",
"GGGGGGGGGGGGGGGGGGGGGGGGGGGGGGGGGGGGGG:p7@%%OGGGGGGGGGGGGGGGGGGG",
"GGGGGGGGGGGGGGGGGGGGGGGGGGGGGGGGGGGGGG%p9@%%+GGGGGGGGGGGGGGGGGGG",
"GGGGGGGGGGGGGGGGGGGGGGGGGGGGGGGGGGGGGG+uw$$%@GGGGGGGGGGGGGGGGGGG",
"GGGGGGGGGGGGGGGGGGGGGGGGGGGGGGGGGGGGGGGwu*@%$GGGGGGGGGGGGGGGGGGG",
"GGGGGGGGGGGGGGGGGGGGGGGGGGGGGGGGGGGGGGG8p,@%%GGGGGGGGGGGGGGGGGGG",
"GGGGGGGGGGGGGGGGGGGGGGGGGGGGGGGGGGGGGGG2i2+%%XGGGGGGGGGGGGGGGGGG",
"GGGGGGGGGGGGGGGGGGGGGGGGGGGGGGGGGGGGGGG,p8@%$ GGGGGGGGGGGGGGGGGG",
"GGGGGGGGGGGGGGGGGGGGGGGGGGGGGGGGGGGGGGG+45$OGGGGGGGGGGGGGGGGGGGG",
"GGGGGGGGGGGGGGGGGGGGGGGGGGGGGGGGGGGGGGGGGGGGGGGGGGGGGGGGGGGGGGGG",
"GGGGGGGGGGGGGGGGGGGGGGGGGGGGGGGGGGGGGGGGGGGGGGGGGGGGGGGGGGGGGGGG",
"GGGGGGGGGGGGGGGGGGGGGGGGGGGGGGGGGGGGGGGGGGGGGGGGGGGGGGGGGGGGGGGG",
"GGGGGGGGGGGGGGGGGGGGGGGGGGGGGGGGGGGGGGGGGGGGGGGGGGGGGGGGGGGGGGGG",
"GGGGGGGGGGGGGGGGGGGGGGGGGGGGGGGGGGGGGGGGGGGGGGGGGGGGGGGGGGGGGGGG",
"GGGGGGGGGGGGGGGGGGGGGGGGGGGGGGGGGGGGGGGGGGGGGGGGGGGGGGGGGGGGGGGG",
"GGGGGGGGGGGGGGGGGGGGGGGGGGGGGGGGGGGGGGGGGGGGGGGGGGGGGGGGGGGGGGGG",
"GGGGGGGGGGGGGGGGGGGGGGGGGGGGGGGGGGGGGGGGGGGGGGGGGGGGGGGGGGGGGGGG"
};
